<svg xmlns="http://www.w3.org/2000/svg" xml:space="preserve" style="enable-background:new 0 0 70 70" viewBox="0 0 70 70"><path d="M23.094 67.518c.1 0 23.3-26.1 23.3-26.1l-23.4-14.8c-8.3 7.6-16 14.5-17.8 16.2-1.1 1-2.2 2.3-3 3.7-4.3 7.4-1.8 16.8 5.6 21.1 3 1.7 9.8 3.8 15.3-.1z" style="fill:url(#a)"/><linearGradient id="b" x1="7.083" x2="64.106" y1="16.294" y2="42.288" gradientTransform="matrix(1 0 0 -1 0 71.047)" gradientUnits="userSpaceOnUse"><stop offset="0" style="stop-color:#905cfb"/><stop offset=".165" style="stop-color:#6677f8"/><stop offset=".378" style="stop-color:#3596f5"/><stop offset=".54" style="stop-color:#17a9f3"/><stop offset=".632" style="stop-color:#0cb0f2"/></linearGradient><path d="M66.9 47.5c-.2-.2-13.1-12.6-13.1-12.6s9.8-10.4 12.4-13c.8-.8 1.5-1.6 2-2.6 3.6-6.1 1.5-13.9-4.6-17.5-4.5-2.6-10.1-2.2-14.1.8-.7.5-1.3 1-1.9 1.6-.3.4-13.9 12.8-25.7 23.6l22.1 14-23.2 26.1c-1.4 1-2.8 1.6-4.3 1.9.3 0 .5 0 .8-.1 4.6-.7 43.9-7.3 45.8-7.7 2.3-.4 4.4-1.8 5.7-3.9C71 54.5 70 50 66.9 47.5z" style="fill:url(#b)"/><linearGradient id="c" x1="30.31" x2="1.068" y1="42.916" y2="68.744" gradientTransform="matrix(1 0 0 -1 0 71.047)" gradientUnits="userSpaceOnUse"><stop offset="0" style="stop-color:#905cfb"/><stop offset=".072" style="stop-color:#a554e6"/><stop offset=".252" style="stop-color:#d641b5"/><stop offset=".39" style="stop-color:#f43597"/><stop offset=".468" style="stop-color:#ff318c"/></linearGradient><path d="M45.9 30.5c-.4-2.7-1.8-4.9-3.8-6.5C40 22.4 23.8 5.6 22 3.7 19.2 1 15.2-.5 11.1.2 4.1 1.2-.8 7.8.3 14.8c.5 3.5 2.5 6.5 5.1 8.4 2.6 2 23 16 24.3 17 2.1 1.6 4.9 2.5 7.7 2 5.5-1 9.4-6.2 8.5-11.7z" style="fill:url(#c)"/><linearGradient id="a" x1="4.983" x2="74.023" y1="12.362" y2="55.864" gradientTransform="matrix(1 0 0 -1 .094 70.765)" gradientUnits="userSpaceOnUse"><stop offset="0" style="stop-color:#905cfb"/><stop offset=".165" style="stop-color:#6677f8"/><stop offset=".378" style="stop-color:#3596f5"/><stop offset=".54" style="stop-color:#17a9f3"/><stop offset=".632" style="stop-color:#0cb0f2"/></linearGradient><path d="M35.505 5.825c-15.48 0-28.027 12.528-28.027 27.984 0 15.456 12.547 27.984 28.027 27.984S63.532 49.265 63.532 33.81c0-15.456-12.548-27.984-28.027-27.984zM24.41 21.208 38.56 30.76a4.38 4.372 0 0 1-5.019 7.166 4.475 4.468 0 0 1-1.078-1.076l-9.567-14.127a1.095 1.094 0 0 1 1.526-1.523zm11.094 36.28c-13.07 0-23.716-10.622-23.716-23.679a23.52 23.484 0 0 1 7.26-17.049 1.907 1.904 0 1 1 2.646 2.741 19.744 19.714 0 0 0-6.092 14.308c0 10.957 8.928 19.871 19.902 19.871s19.902-8.914 19.902-19.87c0-10.316-7.912-18.82-17.996-19.778v7.4a1.907 1.904 0 1 1-3.813 0v-9.398a1.907 1.904 0 0 1 1.907-1.904c13.077 0 23.715 10.629 23.715 23.68 0 13.05-10.638 23.678-23.715 23.678z" style="stroke-width:.134642;fill:#fff;fill-opacity:1"/></svg>